<svg width="62" height="61" viewBox="0 0 62 61" fill="none" xmlns="http://www.w3.org/2000/svg">
<path d="M24.4541 0.906751C18.7947 2.10157 13.604 4.91441 9.51297 9.00347C5.4219 13.0925 2.60651 18.2818 1.40891 23.9407C-2.69805 43.5281 12.1361 60.7796 31.0007 60.7796C31.1959 60.7791 31.383 60.7013 31.521 60.5632C31.6591 60.4252 31.7369 60.2381 31.7375 60.0428L31.7375 45.0835C31.7374 45.0517 31.7471 45.0207 31.7654 44.9947C31.7836 44.9687 31.8094 44.9489 31.8393 44.9382C31.8692 44.9274 31.9017 44.9261 31.9323 44.9346C31.9629 44.943 31.9902 44.9607 32.0103 44.9852L41.5177 56.2934C41.9961 56.8665 42.658 57.2565 43.3911 57.3972C44.1242 57.538 44.8834 57.4208 45.54 57.0657C50.303 54.454 54.2767 50.6106 57.0456 45.9373C59.8146 41.2641 61.2771 35.9327 61.2801 30.5007C61.2801 11.6392 44.0365 -3.19464 24.4541 0.906751ZM45.006 48.1026L39.7931 41.899C39.7389 41.8349 39.7092 41.7537 39.7092 41.6698C39.7092 41.5858 39.7389 41.5046 39.7931 41.4405L51.5572 27.4472C51.6011 27.3952 51.6291 27.3318 51.6381 27.2644C51.6471 27.197 51.6367 27.1284 51.608 27.0668C51.5793 27.0051 51.5336 26.953 51.4763 26.9164C51.419 26.8799 51.3524 26.8605 51.2844 26.8605H41.8424C41.7902 26.8604 41.7387 26.8718 41.6915 26.894C41.6444 26.9162 41.6027 26.9485 41.5695 26.9888L32.0103 38.3543C31.9902 38.3788 31.9629 38.3965 31.9323 38.4049C31.9016 38.4134 31.8692 38.4121 31.8393 38.4013C31.8094 38.3906 31.7836 38.3708 31.7653 38.3448C31.7471 38.3188 31.7374 38.2878 31.7375 38.256L31.7375 27.2152C31.7372 27.1183 31.6986 27.0255 31.6301 26.957C31.5616 26.8885 31.4687 26.8499 31.3718 26.8496H24.3259C24.229 26.8499 24.1362 26.8885 24.0677 26.957C23.9991 27.0255 23.9605 27.1183 23.9602 27.2152L23.9602 51.8482C23.9601 51.8869 23.9508 51.9251 23.9331 51.9595C23.9154 51.9939 23.8898 52.0236 23.8583 52.0463C23.8269 52.0689 23.7906 52.0838 23.7524 52.0897C23.7141 52.0956 23.675 52.0923 23.6382 52.0802C13.1321 48.5 6.07799 37.4619 8.785 25.2751C9.7128 21.1267 11.8004 17.3274 14.8046 14.3199C17.8087 11.3124 21.6057 9.22058 25.7531 8.2882C38.8216 5.3711 50.5776 13.6885 53.2355 25.4524C53.6104 27.109 53.7989 28.8023 53.7976 30.5007C53.7976 37.5929 50.5227 43.8802 45.4827 48.1071C45.4159 48.1635 45.331 48.1941 45.2436 48.1933C45.1561 48.1924 45.0718 48.1603 45.006 48.1026Z" fill="#353535"/>
</svg>
